<?xml version="1.0" encoding="UTF-8"?>
<svg version="1.1" xmlns="http://www.w3.org/2000/svg" width="317" height="54">
<path d="M0 0 C7.59 0 15.18 0 23 0 C23 0.66 23 1.32 23 2 C21.02 2.33 19.04 2.66 17 3 C17 17.52 17 32.04 17 47 C19.97 47.495 19.97 47.495 23 48 C23 48.66 23 49.32 23 50 C9.14 50 -4.72 50 -19 50 C-19 49.34 -19 48.68 -19 48 C-17.515 47.505 -17.515 47.505 -16 47 C-20.20788009 41.24454091 -24.41509524 36.44512827 -30 32 C-29.67 37.28 -29.34 42.56 -29 48 C-27.68 48 -26.36 48 -25 48 C-25 48.66 -25 49.32 -25 50 C-30.61 50 -36.22 50 -42 50 C-42 49.34 -42 48.68 -42 48 C-40.68 48 -39.36 48 -38 48 C-38 36.12 -38 24.24 -38 12 C-39.32 12 -40.64 12 -42 12 C-42 11.34 -42 10.68 -42 10 C-36.06 10 -30.12 10 -24 10 C-24 10.66 -24 11.32 -24 12 C-25.65 12.33 -27.3 12.66 -29 13 C-29 17.29 -29 21.58 -29 26 C-27.01436365 24.23598822 -25.03656344 22.46438117 -23.0625 20.6875 C-22.49853516 20.18798828 -21.93457031 19.68847656 -21.35351562 19.17382812 C-17.94080419 16.10128236 -17.94080419 16.10128236 -16 12 C-17.32 12 -18.64 12 -20 12 C-20 11.34 -20 10.68 -20 10 C-14.39 10 -8.78 10 -3 10 C-3 10.66 -3 11.32 -3 12 C-4.02222656 12.36738281 -5.04445313 12.73476562 -6.09765625 13.11328125 C-10.43535828 14.97229641 -13.24440498 17.78607256 -16.4375 21.1875 C-17.24864258 22.02571289 -17.24864258 22.02571289 -18.07617188 22.88085938 C-19.39354281 24.24486291 -20.69814083 25.62118364 -22 27 C-17.11092314 32.76660347 -12.11235706 38.42996526 -7 44 C-6.51144531 44.5878125 -6.02289063 45.175625 -5.51953125 45.78125 C-3.42852591 47.45835454 -2.01944676 47.33613833 0.625 47.25 C1.42164063 47.23453125 2.21828125 47.2190625 3.0390625 47.203125 C5.00211257 47.20804981 5.00211257 47.20804981 6 46 C6.08874135 42.89748799 6.11518455 39.8173188 6.09765625 36.71484375 C6.09553383 35.31861534 6.09553383 35.31861534 6.09336853 33.8941803 C6.08775172 30.90858809 6.0751964 27.92306971 6.0625 24.9375 C6.05748716 22.91862087 6.05292388 20.89974057 6.04882812 18.88085938 C6.03777683 13.92054428 6.02050095 8.96028468 6 4 C4.02 3.34 2.04 2.68 0 2 C0 1.34 0 0.68 0 0 Z " fill="#000000" transform="translate(289,2)"/>
<path d="M0 0 C4.88380204 -0.83416765 9.13382088 -1.03418796 14 0 C17.98706421 3.20110246 20.73934996 6.91221595 23.64697266 11.08740234 C25.48046597 13.67917185 27.45295106 16.14774712 29.43286133 18.62841797 C30.80065366 20.34423669 32.14853663 22.07384405 33.4921875 23.80859375 C35.9256739 26.9323019 38.45033019 29.97055361 41 33 C41.04939662 29.04903022 41.08571755 25.0981797 41.10986328 21.14697266 C41.12488107 19.1408864 41.15028981 17.13488676 41.17578125 15.12890625 C41.18222656 13.87207031 41.18867187 12.61523438 41.1953125 11.3203125 C41.20578613 10.15773926 41.21625977 8.99516602 41.22705078 7.79736328 C41.29261997 4.86089721 41.29261997 4.86089721 39 3 C36.93125966 2.3574765 36.93125966 2.3574765 35 2 C35 1.34 35 0.68 35 0 C41.27 0 47.54 0 54 0 C54 0.66 54 1.32 54 2 C52.02 2.99 50.04 3.98 48 5 C47.67 20.51 47.34 36.02 47 52 C42.32233167 50.83058292 40.81521569 48.88922245 37.9375 45.3125 C37.46070801 44.7345166 36.98391602 44.1565332 36.49267578 43.56103516 C32.63772506 38.86151012 28.86676983 34.09141466 25.14428711 29.28637695 C20.86824498 23.77184956 16.4316752 18.3897438 12 13 C11.97523149 17.19921466 11.95710754 21.39839029 11.94506836 25.59765625 C11.94004794 27.02539816 11.93323028 28.45313496 11.92456055 29.88085938 C11.91239447 31.93621079 11.90674872 33.99149407 11.90234375 36.046875 C11.89710693 37.28276367 11.89187012 38.51865234 11.88647461 39.79199219 C11.98269945 43.50068947 11.98269945 43.50068947 13 47 C15.99615946 48.3045656 15.99615946 48.3045656 19 49 C19 49.66 19 50.32 19 51 C12.73 51 6.46 51 0 51 C0 50.34 0 49.68 0 49 C0.804375 48.731875 1.60875 48.46375 2.4375 48.1875 C3.7059375 47.5996875 3.7059375 47.5996875 5 47 C6.28123535 43.15629395 6.18200429 39.50712852 6.203125 35.5 C6.20882507 34.66791016 6.21452515 33.83582031 6.22039795 32.97851562 C6.22983824 31.22006499 6.23637808 29.46159674 6.24023438 27.703125 C6.24996349 25.01010529 6.28100478 22.31784139 6.3125 19.625 C6.31902798 17.9166712 6.32427926 16.20833694 6.328125 14.5 C6.3404718 13.69369141 6.3528186 12.88738281 6.36553955 12.05664062 C6.471072 7.90338545 6.471072 7.90338545 4.66522217 4.32617188 C2.92431105 2.78386073 2.92431105 2.78386073 0 2 C0 1.34 0 0.68 0 0 Z " fill="#000000" transform="translate(0,1)"/>
<path d="M0 0 C4.95 0 9.9 0 15 0 C15 0.66 15 1.32 15 2 C14.01 2 13.02 2 12 2 C15.80201224 13.56972533 15.80201224 13.56972533 20 25 C20.87279862 23.13360019 21.72251027 21.25639389 22.5625 19.375 C23.03816406 18.33085937 23.51382813 17.28671875 24.00390625 16.2109375 C25.34596178 11.88478202 24.66023748 8.87913744 23.1875 4.6875 C22.10815891 2.80730912 22.10815891 2.80730912 19.875 2.25 C19.25625 2.1675 18.6375 2.085 18 2 C18 1.34 18 0.68 18 0 C23.61 0 29.22 0 35 0 C35 0.66 35 1.32 35 2 C33.68 2 32.36 2 31 2 C32.11804479 5.27325262 33.24562575 8.54314082 34.375 11.8125 C34.69210938 12.74126953 35.00921875 13.67003906 35.3359375 14.62695312 C35.6453125 15.51962891 35.9546875 16.41230469 36.2734375 17.33203125 C36.55622559 18.15421143 36.83901367 18.9763916 37.13037109 19.82348633 C38.00627644 22.23300276 38.00627644 22.23300276 40 25 C41.17171756 21.71010914 42.33651088 18.41780898 43.5 15.125 C43.83386719 14.18785156 44.16773438 13.25070313 44.51171875 12.28515625 C44.98544922 10.94130859 44.98544922 10.94130859 45.46875 9.5703125 C45.76201172 8.74289551 46.05527344 7.91547852 46.35742188 7.06298828 C47.09912901 5.04187215 47.09912901 5.04187215 47 3 C46.01 2.67 45.02 2.34 44 2 C44 1.34 44 0.68 44 0 C47.96 0 51.92 0 56 0 C56 0.66 56 1.32 56 2 C55.39099854 2.57194092 54.78199707 3.14388184 54.15454102 3.7331543 C51.57498611 6.44716759 50.73619965 8.73601178 49.52734375 12.26953125 C49.10259766 13.48833984 48.67785156 14.70714844 48.24023438 15.96289062 C47.80547792 17.24592049 47.37123693 18.52912512 46.9375 19.8125 C46.07573994 22.32045504 45.20771226 24.82617652 44.33984375 27.33203125 C43.93749512 28.49686035 43.53514648 29.66168945 43.12060547 30.86181641 C41.88584571 34.31968174 40.52245592 37.6605803 39 41 C38.34 41 37.68 41 37 41 C36.79842285 40.47567383 36.5968457 39.95134766 36.38916016 39.41113281 C35.4698258 37.02329252 34.54744394 34.63664066 33.625 32.25 C33.30789062 31.425 32.99078125 30.6 32.6640625 29.75 C32.3546875 28.95078125 32.0453125 28.1515625 31.7265625 27.328125 C31.44377441 26.5949707 31.16098633 25.86181641 30.86962891 25.10644531 C30.01139475 23.02760077 29.00579923 21.01159847 28 19 C25.36 26.26 22.72 33.52 20 41 C19.01 41 18.02 41 17 41 C16.62713867 39.92516357 16.25427734 38.85032715 15.87011719 37.74291992 C14.48175483 33.751901 13.07625448 29.76709822 11.66552734 25.78393555 C11.05764994 24.05999524 10.45441705 22.33440984 9.85595703 20.60717773 C8.99430193 18.12295321 8.11604953 15.64514776 7.234375 13.16796875 C6.97066101 12.39599655 6.70694702 11.62402435 6.4352417 10.82865906 C4.939443 6.68293712 3.87410076 4.40158473 0 2 C0 1.34 0 0.68 0 0 Z " fill="#000000" transform="translate(167,12)"/>
<path d="M0 0 C1.46953125 0.00966797 1.46953125 0.00966797 2.96875 0.01953125 C3.98453125 0.03628906 5.0003125 0.05304687 6.046875 0.0703125 C7.078125 0.07933594 8.109375 0.08835937 9.171875 0.09765625 C11.71364116 0.12119112 14.25528772 0.15706119 16.796875 0.1953125 C17.291875 7.1253125 17.291875 7.1253125 17.796875 14.1953125 C16.806875 14.1953125 15.816875 14.1953125 14.796875 14.1953125 C14.36375 13.2671875 13.930625 12.3390625 13.484375 11.3828125 C11.33076859 7.31488929 10.16293315 5.65066522 5.796875 4.1953125 C0.80929203 3.82586191 -2.25271846 4.01304057 -6.203125 7.1953125 C-10.23481395 12.81087926 -10.85682245 18.43674568 -10.203125 25.1953125 C-9.41081453 28.00485514 -8.36446368 30.50100677 -7.203125 33.1953125 C-6.873125 34.1853125 -6.543125 35.1753125 -6.203125 36.1953125 C-0.7959228 38.44831342 4.11287339 38.67315292 9.796875 37.1953125 C12.00319317 36.03582189 13.79729143 34.70719276 15.796875 33.1953125 C16.456875 33.1953125 17.116875 33.1953125 17.796875 33.1953125 C17.671875 34.9453125 17.671875 34.9453125 16.796875 37.1953125 C9.66084531 42.62490031 3.52129903 42.78698121 -5.203125 42.1953125 C-10.42256451 40.42443124 -14.49140846 37.32433034 -17.1796875 32.41015625 C-20.15569503 25.41514791 -20.10615865 19.07457896 -17.578125 11.9453125 C-14.28961669 4.43538573 -8.30639989 -0.09658605 0 0 Z " fill="#000000" transform="translate(132.203125,10.8046875)"/>
<path d="M0 0 C11.55 0 23.1 0 35 0 C35 3.63 35 7.26 35 11 C34.01 10.67 33.02 10.34 32 10 C31.79375 9.195625 31.5875 8.39125 31.375 7.5625 C30.694375 6.2940625 30.694375 6.2940625 30 5 C27.03 4.34 24.06 3.68 21 3 C21.33 14.22 21.66 25.44 22 37 C23.65 37.33 25.3 37.66 27 38 C27 38.66 27 39.32 27 40 C20.73 40 14.46 40 8 40 C8 39.34 8 38.68 8 38 C9.65 37.34 11.3 36.68 13 36 C13.33 25.11 13.66 14.22 14 3 C5.23723496 3.85292115 5.23723496 3.85292115 2.9375 8.125 C2.4734375 9.548125 2.4734375 9.548125 2 11 C1.34 11 0.68 11 0 11 C0 7.37 0 3.74 0 0 Z " fill="#000000" transform="translate(77,12)"/>
<path d="M0 0 C5.94 0 11.88 0 18 0 C18 0.66 18 1.32 18 2 C16.68 2.33 15.36 2.66 14 3 C14 14.22 14 25.44 14 37 C15.32 37.33 16.64 37.66 18 38 C18 38.66 18 39.32 18 40 C12.06 40 6.12 40 0 40 C0 39.34 0 38.68 0 38 C1.98 37.505 1.98 37.505 4 37 C4 25.78 4 14.56 4 3 C2.68 2.67 1.36 2.34 0 2 C0 1.34 0 0.68 0 0 Z " fill="#000000" transform="translate(226,12)"/>
<path d="M0 0 C5.94 0 11.88 0 18 0 C18 0.66 18 1.32 18 2 C16.68 2.33 15.36 2.66 14 3 C14 14.22 14 25.44 14 37 C15.32 37.33 16.64 37.66 18 38 C18 38.66 18 39.32 18 40 C12.06 40 6.12 40 0 40 C0 39.34 0 38.68 0 38 C1.98 37.505 1.98 37.505 4 37 C4 25.78 4 14.56 4 3 C2.68 2.67 1.36 2.34 0 2 C0 1.34 0 0.68 0 0 Z " fill="#000000" transform="translate(56,12)"/>
</svg>
